<?xml version="1.0" encoding="UTF-8" standalone="no"?>
<!--
  Public domain art from https://thenounproject.com/search/?q=train+station&i=3809.
  Slightly modified to include the plain text "metro" symbol from Unicode.
-->
<svg xmlns:svg="http://www.w3.org/2000/svg" xmlns="http://www.w3.org/2000/svg" version="1.1" x="0px" y="0px" viewBox="0 0 100 100" enable-background="new 0 0 100 100" xml:space="preserve">
  <g>
    <g>
      <path fill="black" d="M51.727,3.002c-0.878,0-1.465,0.586-1.465,1.465c0,0.88,0.587,1.466,1.465,1.466c0.88,0,1.467-0.586,1.467-1.466    C53.193,3.588,52.606,3.002,51.727,3.002z M47.33,3.002c-0.879,0-1.465,0.586-1.465,1.465c0,0.88,0.586,1.466,1.465,1.466    c0.88,0,1.466-0.586,1.466-1.466C48.796,3.588,48.209,3.002,47.33,3.002z M76.352,90.506h-4.69l-2.638-4.544h4.104l-2.785-3.518    h-3.371l-3.078-5.276h2.345l-2.345-3.225h-1.906v-4.25l7.915-7.623c0,0,1.612-1.172,1.612-3.811c0,0,0-32.1,0-34.445    c-0.146-3.518-3.371-4.397-3.371-5.277l-1.759-6.448c-0.146-0.733-0.879-2.052-2.491-2.785c-1.906-0.88-8.355-2.638-14.365-2.492    c-6.009-0.146-12.459,1.612-14.363,2.492c-1.612,0.733-2.346,2.052-2.492,2.785l-1.76,6.448c0,0.88-3.224,1.759-3.371,5.277    c0,2.345,0,34.445,0,34.445c0,2.638,1.612,3.811,1.612,3.811l7.915,7.623v4.25h-1.904l-2.346,3.225h2.346l-3.079,5.276h-3.372    l-2.785,3.518h4.104l-2.638,4.544h-4.69l-2.932,3.957h5.277l-1.759,2.785h2.785l1.759-2.785h43.385l1.759,2.785h2.785    l-1.759-2.785h5.276L76.352,90.506z M64.479,16.78c-3.225-2.053-11.58-3.665-14.364-3.812v-4.25    c0.146-0.586,0.586-0.733,0.88-0.733c2.638-0.293,10.7,1.612,12.018,2.345c0.587,0.293,0.733,0.293,1.027,0.879l1.612,5.13    C65.798,16.78,64.919,17.073,64.479,16.78z M67.118,34.075c-1.026,0-1.906-0.733-1.906-1.759c0-1.026,0.88-1.906,1.906-1.906    c1.025,0,1.905,0.88,1.905,1.906C69.023,33.342,68.143,34.075,67.118,34.075z M49.528,22.936c-1.759,0-3.371-1.466-3.371-3.225    c0-1.76,1.612-3.372,3.371-3.372s3.371,1.612,3.371,3.372C52.899,21.47,51.287,22.936,49.528,22.936z M34.578,16.78    c-0.44,0.292-1.319,0-1.173-0.44l1.613-5.13c0.293-0.586,0.439-0.586,1.026-0.879c1.319-0.733,9.381-2.638,12.019-2.345    c0.293,0,0.733,0.147,0.879,0.733v4.25C46.158,13.115,37.803,14.728,34.578,16.78z M31.94,34.075    c-1.027,0-1.906-0.733-1.906-1.759c0-1.026,0.878-1.906,1.906-1.906c1.026,0,1.905,0.88,1.905,1.906    C33.845,33.342,32.966,34.075,31.94,34.075z M64.772,60.898l-5.131,7.915h-1.905l4.25-7.915h-4.25l-2.639,7.915H53.34l2.052-7.915    h-4.69l-0.44,7.915h-1.465l-0.44-7.915h-4.69l1.905,7.915h-1.612l-2.785-7.915h-4.104l4.251,7.915h-1.906l-5.129-7.915h-3.664    v-2.052h37.815v2.052H64.772z M40.294,73.943v-3.958h18.468v3.958H40.294z M34.432,82.444l2.785-5.276h24.625l2.785,5.276H34.432z     M29.888,90.506l2.638-4.544h34.005l2.638,4.544H29.888z" />
      <path fill="black" d="M48.942,12.969L48.942,12.969C48.943,12.969,48.943,12.969,48.942,12.969C48.943,12.968,48.942,12.968,48.942,12.969    C48.942,12.968,48.942,12.968,48.942,12.969L48.942,12.969c-0.002-0.001-0.002-0.001-0.002-0.001l0,0l0,0h0v0.001c0,0,0,0,0,0    v0.001l0,0v0C48.94,12.97,48.94,12.97,48.942,12.969C48.941,12.97,48.942,12.97,48.942,12.969    C48.942,12.97,48.942,12.97,48.942,12.969C48.943,12.97,48.943,12.969,48.942,12.969C48.943,12.969,48.943,12.969,48.942,12.969z     M48.941,12.969C48.94,12.969,48.94,12.969,48.941,12.969H48.94v-0.001L48.941,12.969v-0.001V12.969    C48.941,12.969,48.941,12.969,48.941,12.969L48.941,12.969C48.941,12.969,48.942,12.969,48.941,12.969L48.941,12.969z     M48.942,12.969L48.942,12.969L48.942,12.969L48.942,12.969L48.942,12.969L48.942,12.969L48.942,12.969z M48.942,12.969    C48.942,12.969,48.942,12.969,48.942,12.969C48.942,12.969,48.942,12.969,48.942,12.969L48.942,12.969L48.942,12.969z     M48.942,12.969C48.942,12.969,48.942,12.969,48.942,12.969C48.942,12.968,48.942,12.968,48.942,12.969L48.942,12.969    C48.942,12.969,48.942,12.969,48.942,12.969z" />
    </g>
    <path fill="white" d="m 49.509166,27.823098 c -5.316224,0 -9.587534,4.271311 -9.587534,9.569203 0,5.316223 4.27131,9.587534 9.587534,9.587534 5.316224,0 9.587534,-4.271311 9.587534,-9.587534 0,-5.316224 -4.27131,-9.569203 -9.587534,-9.569203 z m -4.36297,13.840513 c 0,1.173236 0.01833,1.429881 0.09166,2.016499 l -1.704858,0 c 0.109991,-0.586618 0.128323,-1.099908 0.128323,-2.053162 l 0,-8.450963 c 0,-0.879926 -0.03666,-1.503208 -0.128323,-2.071494 l 2.199817,0 c 0.109991,0.513291 0.293309,1.173236 0.494959,1.72319 l 2.731439,7.259395 c 0.238313,0.659945 0.293309,0.824931 0.568286,1.869844 0.219981,-0.861595 0.219981,-0.861595 0.549954,-1.869844 l 2.731439,-7.259395 c 0.256645,-0.71494 0.384968,-1.228231 0.476627,-1.72319 l 2.199817,0 c -0.109991,0.659945 -0.128323,1.154904 -0.128323,2.071494 l 0,8.450963 c 0,0.953254 0.01833,1.448212 0.128323,2.053162 l -1.704858,0 c 0.07333,-0.586618 0.09166,-0.861595 0.09166,-2.016499 l 0.09166,-5.041246 c 0,-0.824931 0.01833,-1.649863 0.055,-2.089826 0.055,-1.301558 0.055,-1.301558 0.109991,-1.833181 -0.733272,2.364803 -0.8066,2.621449 -1.283226,3.886343 l -1.979835,5.27956 c -0.329973,0.8066 -0.476627,1.338222 -0.568286,1.814849 l -1.594868,0 c -0.09166,-0.494959 -0.219981,-0.971586 -0.549954,-1.814849 l -1.888176,-5.151237 c -0.403299,-1.044913 -0.788267,-2.199817 -1.338222,-4.032997 0.07333,1.484876 0.128323,3.263061 0.146655,4.087992 l 0.07333,4.894592 z" />
  </g>
</svg>
